<svg xmlns="http://www.w3.org/2000/svg" xmlns:xlink="http://www.w3.org/1999/xlink" version="1.1" width="1024" height="768" viewBox="0 0 1024 768" xml:space="preserve">
<desc>Created with Fabric.js 6.7.1</desc>
<defs>
</defs>
<g transform="matrix(1 0 0 1 508.9062 383.9976)">
<path style="stroke: none; stroke-width: 1; stroke-dasharray: none; stroke-linecap: butt; stroke-dashoffset: 0; stroke-linejoin: miter; stroke-miterlimit: 4; fill: rgb(255,255,255); fill-rule: nonzero; opacity: 1;" transform=" translate(-508.9062, -383.9976)" d="M 366.0469 435.7714 C 373.3045 435.7714 380.3428 434.3449 386.9737 431.5731 C 393.389 428.8546 399.1373 424.9955 404.0691 420.049 C 409.0028 415.1024 412.8878 409.3542 415.5933 402.9536 C 418.3927 396.3097 419.8191 389.2704 419.8191 382.0138 L 419.8191 371.3467 L 366.0469 371.3467 L 366.0469 392.681 L 396.69 392.681 C 395.1013 397.2469 392.4917 401.4314 388.9715 404.9514 C 382.8436 411.0812 374.7033 414.45 366.0339 414.45 C 357.3647 414.45 349.2242 411.0812 343.0954 404.9514 C 336.9667 398.8236 333.5967 390.6832 333.5967 382.0138 C 333.5967 373.3436 336.9667 365.2041 343.0954 359.0752 C 349.2242 352.9466 357.3647 349.5766 366.0339 349.5766 C 371.3067 349.5766 376.3342 350.7995 380.9675 353.2055 C 385.3981 355.5018 389.3125 358.8578 392.2613 362.9078 L 409.4912 350.3239 C 404.6128 343.6247 398.144 338.0801 390.8072 334.2616 C 383.2233 330.3075 374.6497 328.2286 366.0469 328.2286 C 358.791 328.2286 351.7527 329.6413 345.12 332.4408 C 338.7065 335.1591 332.9581 339.0311 328.0255 343.9648 C 323.0918 348.9104 319.2059 354.6586 316.5013 361.0592 C 313.7019 367.7041 312.2755 374.7433 312.2755 382 C 312.2755 389.2566 313.7019 396.2959 316.5013 402.9279 C 319.2198 409.3414 323.0918 415.0896 328.0115 420.0233 C 332.9581 424.9549 338.7065 428.8418 345.1062 431.5454 C 351.7527 434.3449 358.791 435.7714 366.0469 435.7714 Z M 520.606 435.0385 L 547.3365 361.5621 L 574.2972 435.0385 L 596.8809 435.0385 L 556.5624 329.0439 L 538.1769 329.0439 L 500.1849 429.328 L 476.1501 395.1135 C 481.7343 393.0613 486.2864 390.0176 489.7383 386.0358 C 494.6979 380.3014 497.2116 372.7867 497.2116 363.6953 C 497.2116 353.5581 494.1136 345.0241 488.2567 339.0042 C 485.0903 335.7569 481.1502 333.2559 476.5426 331.5845 C 471.869 329.8999 466.4874 329.0439 460.5218 329.0439 L 421.5219 329.0439 L 421.5219 435.0385 L 442.8568 435.0385 L 442.8568 349.2917 L 458.8907 349.2917 C 464.3404 349.2917 468.6898 350.555 471.434 352.9334 C 474.1117 355.2435 475.4701 358.7765 475.4701 363.4236 C 475.4701 367.8808 474.1523 371.3464 471.5427 373.7515 C 468.498 376.551 463.6879 377.9645 457.2615 377.9645 L 453.1849 377.9645 L 453.1849 398.6601 L 478.4189 435.0385 Z M 564.2499 408.9203 L 530.6521 408.9203 L 547.5231 435.0383 Z M 619.8264 435.0385 L 637.0027 435.0385 L 677.0082 329.0439 L 654.1665 329.0439 L 628.4828 399.4619 L 602.7991 329.0439 L 579.82 329.0439 Z M 681.5929 435.0385 L 702.9281 435.0385 L 702.9281 329.0439 L 681.5929 335.838 Z M 738.9369 435.0385 L 760.2709 435.0385 L 760.2709 349.2917 L 789.4876 349.2917 L 789.4876 329.0439 L 710.1274 329.0439 L 710.1274 349.2917 L 738.9369 349.2917 Z M 850.4951 395.1135 C 856.0793 393.0613 860.6314 390.0176 864.0833 386.0358 C 869.0429 380.3014 871.5566 372.7867 871.5566 363.6954 C 871.5566 353.5581 868.4586 345.0242 862.6017 339.0042 C 859.4353 335.7569 855.4952 333.256 850.8876 331.5845 C 846.214 329.8999 840.8324 329.0439 834.8668 329.0439 L 795.8669 329.0439 L 795.8669 435.0385 L 817.2019 435.0385 L 817.2019 349.2917 L 833.2357 349.2917 C 838.6854 349.2917 843.0348 350.555 845.779 352.9334 C 848.4567 355.2435 849.8151 358.7766 849.8151 363.4236 C 849.8151 367.8808 848.4973 371.3464 845.8877 373.7515 C 842.843 376.551 838.0329 377.9645 831.6065 377.9645 L 827.5299 377.9645 L 827.5299 398.6601 L 852.7639 435.0385 L 878.5413 435.0385 Z M 883.1007 435.0385 L 951.7245 435.0385 L 951.7245 415.197 L 883.1007 415.197 Z M 883.1007 392.3683 L 951.7245 392.3683 L 951.7245 372.1206 L 883.1007 372.1206 Z M 883.1007 329.0439 L 883.1007 349.2917 L 951.7245 349.2917 L 951.7245 329.0439 Z M 119.1069 287.5283 C 84.0577 305.9563 61.4844 343.2606 66.8842 383.7863 C 69.0186 399.8061 74.428 413.7663 84.337 426.6477 C 86.0759 428.9146 87.9365 431.0812 89.9103 433.1408 C 90.8087 434.0904 92.6706 435.8869 93.4016 436.8097 C 90.8724 446.5059 86.9949 456.922 84.161 466.5959 C 83.2418 469.7343 80.7822 476.4882 80.4432 479.3703 C 80.2655 480.9774 80.5904 482.6001 81.3719 484.0088 C 82.5299 486.0684 84.4866 487.544 86.7662 488.0723 C 91.408 489.1734 97.0211 484.9272 101.215 482.7673 L 127.5271 469.1057 C 129.8392 467.8909 135.6721 464.6567 138.0464 464.0905 C 139.5419 463.7338 145.5144 465.711 147.6202 466.1211 C 147.6789 470.3584 147.2843 486.3827 148.2402 489.2693 C 148.8615 490.3882 149.4055 491.369 150.3832 492.2361 C 156.7551 497.8888 162.6708 491.0547 167.5925 487.0871 L 182.3115 475.289 C 183.2584 474.5178 188.3115 470.2559 189.098 470.0174 C 192.7582 468.9051 197.6334 468.6488 201.5331 467.9199 C 240.0948 460.7626 274.4844 432.9714 283.9249 393.4156 C 289.6965 369.2358 285.2673 344.2635 272.2171 323.2837 C 251.4775 289.9369 211.38 272.3156 173.2247 273.6831 C 153.4229 274.3411 136.7255 278.2648 119.1069 287.5283 Z M 112.167 431.3286 C 112.2039 430.8806 111.4699 430.0871 111.1841 429.8307 C 106.7147 425.823 102.5474 422.1184 98.7545 417.3706 C 89.7587 405.9292 84.4068 391.9801 83.4096 377.379 C 81.9154 358.073 88.9093 338.0519 101.3841 323.5179 C 119.2578 302.6937 143.222 293.4855 169.7447 291.2852 C 178.5085 290.3682 195.3815 292.3797 203.9717 294.6305 C 225.5221 300.464 247.0922 314.0656 258.565 333.9289 C 286.6229 382.5046 256.4075 435.2138 206.1533 449.0336 C 202.2361 450.099 198.2551 450.9193 194.2368 451.4899 C 192.0113 451.822 184.7326 452.2612 183.4386 453.019 C 176.9574 456.8195 169.5469 464.5875 163.1919 468.4147 C 163.0522 466.6783 163.0311 464.8818 162.9865 463.1364 C 162.9926 459.3449 162.9045 455.0452 163.193 451.3071 C 160.1027 450.4824 156.0925 450.3375 152.9378 449.6287 C 148.1629 448.5588 143.3662 447.0876 138.7127 445.5586 C 137.9705 445.3156 136.715 444.9434 136.0016 445.242 C 132.5672 446.6708 128.7029 448.9444 125.3712 450.7142 L 103.3408 462.3273 C 105.4457 453.3489 110.6245 440.5923 112.167 431.3286 Z M 206.4541 348.7552 C 207.9678 354.4101 215.8463 359.7296 219.5438 364.5144 C 214.4446 364.7639 209.2597 364.5024 204.1517 364.5376 C 199.7335 364.5681 195.7833 363.8453 192.356 367.3069 C 181.7137 378.0578 171.1044 388.8752 160.6375 399.804 C 158.6259 401.9059 157.3173 403.776 157.5669 406.7807 C 157.7407 413.1512 165.8696 416.9739 170.8693 413.4053 C 173.3102 411.66 176.3662 408.1605 178.583 405.8668 L 193.7335 390.11 C 195.8272 387.9769 199.7071 383.7864 201.8404 381.9965 C 206.1092 381.3924 214.8884 381.9452 219.5636 381.778 C 217.7182 383.7128 215.7057 385.9663 213.7372 387.7562 C 208.9038 392.1496 202.3545 398.6583 209.1059 405.129 C 210.813 406.7807 213.1132 407.6523 215.4706 407.5408 C 216.4175 407.494 217.8939 407.2667 218.6123 406.6425 C 222.9492 402.8711 227.2487 398.0453 231.2956 393.9261 L 241.5622 383.5011 C 244.794 380.2222 249.3989 376.9393 248.5091 371.8438 C 247.8236 367.9264 243.322 364.2231 240.5845 361.4895 L 231.5219 352.355 C 229.1535 349.9524 226.8137 347.5353 224.4783 345.1005 C 222.0968 342.6156 218.6409 338.4013 214.8269 338.9679 C 210.1319 339.5826 205.1162 343.7712 206.4541 348.7552 Z M 174.235 343.2789 C 170.1222 347.4659 166.0299 351.6749 161.9599 355.9055 C 159.3185 358.6822 156.4281 361.9176 153.7368 364.5779 C 147.9797 364.5948 141.5267 364.7636 135.8398 364.4756 C 138.414 361.332 146.381 353.9349 147.8055 351.4504 C 148.6226 350.0553 148.9864 348.4348 148.8456 346.8181 C 148.3308 340.6719 140.7365 336.5426 135.7543 340.3727 C 133.4712 342.1281 131 344.9883 128.9368 347.0905 L 117.3153 358.9278 C 114.3426 361.982 110.932 365.1247 108.2189 368.3585 C 107.1542 369.6277 106.5426 372.6542 106.8093 374.3498 C 107.3574 377.8373 112.3743 381.9342 114.9808 384.5979 C 121.4758 391.1712 129.8132 400.2321 136.6276 406.6249 C 140.2278 408.6755 143.8902 407.1487 146.319 404.777 C 149.0242 402.1356 149.8964 397.2809 147.6752 394.488 C 144.3606 390.322 139.3673 385.699 135.6159 381.8852 C 143.4491 381.2878 152.2145 382.7344 159.8791 381.1608 C 161.943 380.7373 165.9914 376.1047 167.6737 374.3668 L 176.7044 365.0694 C 182.3595 359.2834 188.2167 353.395 193.7092 347.4418 C 195.1768 345.8501 195.9084 344.0649 195.7876 341.8232 C 195.6492 339.5908 194.6363 337.5069 192.9776 336.0356 C 190.6861 333.9769 188.4826 333.6236 185.6045 333.8166 C 181.5972 334.8297 177.2515 340.1964 174.235 343.2789 Z" stroke-linecap="round"/>
</g>
</svg>