<svg xmlns="http://www.w3.org/2000/svg" xmlns:xlink="http://www.w3.org/1999/xlink" viewBox="0 0 420 260" role="img" aria-label="Two helpers by a toolbox and a board of sticky notes"><defs><filter id="edf32" x="0" y="0" width="100%" height="100%"><feTurbulence type="fractalNoise" baseFrequency="1.05" numOctaves="2" seed="224" stitchTiles="stitch" result="n"></feTurbulence><feColorMatrix in="n" type="matrix" values="0 0 0 0 0.16  0 0 0 0 0.14  0 0 0 0 0.11  0 0 0 1.5 -0.92"></feColorMatrix><feComposite in2="SourceAlpha" operator="in"></feComposite></filter></defs><g id="edx32"><rect x="0" y="0" width="420" height="260" fill="#F3EEE4"></rect><ellipse cx="210" cy="150" rx="170" ry="96" fill="#E6E2D6"></ellipse><rect x="250" y="56" width="128" height="86" rx="3" fill="#FBF8F2" stroke="#D9D1C2" stroke-width="2"></rect><rect x="262" y="68" width="24" height="22" fill="#F1D9A6"></rect><rect x="294" y="68" width="24" height="22" fill="#CFE3D4"></rect><rect x="326" y="68" width="24" height="22" fill="#D8DCEF"></rect><rect x="262" y="100" width="24" height="22" fill="#F3D3CC"></rect><rect x="294" y="100" width="24" height="22" fill="#F1D9A6"></rect><rect x="326" y="100" width="40" height="22" fill="#CFE3D4"></rect><rect x="96" y="204" width="62" height="32" rx="3" fill="#C98F5B"></rect><rect x="96" y="204" width="62" height="9" fill="rgba(0,0,0,.12)"></rect><path d="M114 204 V196 H140 V204" fill="none" stroke="#3A3B37" stroke-width="3" stroke-linecap="round" stroke-linejoin="round"></path><path d="M172 236 L188 196" stroke="#8A8B85" stroke-width="5" stroke-linecap="round"></path><circle cx="190" cy="191" r="7" fill="none" stroke="#8A8B85" stroke-width="4"></circle><g transform="translate(226 236) scale(1 1)"><ellipse cx="0" cy="3" rx="20" ry="3" fill="rgba(42,43,40,.12)"></ellipse><path d="M-6 -94 C -10 -78 -11 -66 -9 -56" fill="none" stroke="#5B6E7A" stroke-width="7" stroke-linecap="round" stroke-linejoin="round"></path><circle cx="-9" cy="-55" r="3.4" fill="#E8B894"></circle><path d="M-4 -54 L-6 -2" fill="none" stroke="#2A2B28" stroke-width="7.5" stroke-linecap="round" stroke-linejoin="round"></path><path d="M4 -54 L7 -2" fill="none" stroke="#2A2B28" stroke-width="7.5" stroke-linecap="round" stroke-linejoin="round"></path><path d="M-11 -1 h10 a2.5 2.5 0 0 1 0 4 h-10 z" fill="#2A2B28"></path><path d="M2 -1 h11 a2.5 2.5 0 0 1 0 4 h-11 z" fill="#2A2B28"></path><path d="M-12 -52 C -14 -76 -10 -98 0 -100 C 10 -98 14 -76 12 -52 Z" fill="#5B6E7A"></path><path d="M3 -52 C 5 -70 6 -88 6 -96 C 12 -90 14 -74 12 -52 Z" fill="rgba(0,0,0,.10)"></path><path d="M1 -100 V-105" fill="none" stroke="#E8B894" stroke-width="4" stroke-linecap="round" stroke-linejoin="round"></path><circle cx="2" cy="-115" r="9.5" fill="#E8B894"></circle><path d="M-7.5 -114 C -7.5 -128.5 12.5 -128.5 11.5 -117 C 5.5 -121 -3 -120 -7.5 -114 Z" fill="#7A4B2A"></path><path d="M6 -94 C 12 -82 20 -76 30 -74" fill="none" stroke="#5B6E7A" stroke-width="7" stroke-linecap="round" stroke-linejoin="round"></path><circle cx="31" cy="-74" r="3.4" fill="#E8B894"></circle></g><g transform="translate(300 236) scale(-1 1)"><ellipse cx="0" cy="3" rx="20" ry="3" fill="rgba(42,43,40,.12)"></ellipse><path d="M-6 -94 C -10 -78 -11 -66 -9 -56" fill="none" stroke="#7E9A7B" stroke-width="7" stroke-linecap="round" stroke-linejoin="round"></path><circle cx="-9" cy="-55" r="3.4" fill="#8D5B3E"></circle><path d="M-4 -54 L-6 -2" fill="none" stroke="#3A3B37" stroke-width="7.5" stroke-linecap="round" stroke-linejoin="round"></path><path d="M4 -54 L7 -2" fill="none" stroke="#3A3B37" stroke-width="7.5" stroke-linecap="round" stroke-linejoin="round"></path><path d="M-11 -1 h10 a2.5 2.5 0 0 1 0 4 h-10 z" fill="#2A2B28"></path><path d="M2 -1 h11 a2.5 2.5 0 0 1 0 4 h-11 z" fill="#2A2B28"></path><path d="M-12 -52 C -14 -76 -10 -98 0 -100 C 10 -98 14 -76 12 -52 Z" fill="#7E9A7B"></path><path d="M3 -52 C 5 -70 6 -88 6 -96 C 12 -90 14 -74 12 -52 Z" fill="rgba(0,0,0,.10)"></path><path d="M1 -100 V-105" fill="none" stroke="#8D5B3E" stroke-width="4" stroke-linecap="round" stroke-linejoin="round"></path><circle cx="-6.0" cy="-123.0" r="5.2" fill="#1E1A18"></circle><circle cx="2" cy="-115" r="9.5" fill="#8D5B3E"></circle><path d="M-7.5 -114 C -7.5 -128.5 12.5 -128.5 11.5 -117 C 5.5 -121 -3 -120 -7.5 -114 Z" fill="#1E1A18"></path><path d="M6 -94 C 12 -82 20 -76 30 -74" fill="none" stroke="#7E9A7B" stroke-width="7" stroke-linecap="round" stroke-linejoin="round"></path><circle cx="31" cy="-74" r="3.4" fill="#8D5B3E"></circle></g><g transform="translate(60 236) scale(1 1)"><path d="M-10 0 L10 0 L12 -20 L-12 -20 Z" fill="#3A3B37"></path><path d="M0 -20 C -2 -38 -12 -44 -18 -56" fill="none" stroke="#7E9A7B" stroke-width="1.8" stroke-linecap="round" stroke-linejoin="round"></path><path d="M0 -20 C 2 -36 10 -46 20 -50" fill="none" stroke="#7E9A7B" stroke-width="1.8" stroke-linecap="round" stroke-linejoin="round"></path><path d="M0 -20 C 0 -40 2 -54 0 -68" fill="none" stroke="#7E9A7B" stroke-width="1.8" stroke-linecap="round" stroke-linejoin="round"></path><path d="M-18 -56 C -26 -48 -22 -38 -10 -38 C -8 -48 -12 -54 -18 -56 Z" fill="#7E9A7B"></path><path d="M20 -50 C 26 -40 18 -34 8 -34 C 8 -44 14 -48 20 -50 Z" fill="#5E7A5C"></path><path d="M0 -68 C -8 -62 -6 -50 0 -46 C 6 -50 8 -62 0 -68 Z" fill="#7E9A7B"></path></g><path d="M20 236 H400" fill="none" stroke="#B3A894" stroke-width="1.5" stroke-linecap="round"></path></g><use href="#edx32" filter="url(#edf32)"></use></svg>