<svg xmlns="http://www.w3.org/2000/svg" xmlns:xlink="http://www.w3.org/1999/xlink" viewBox="0 0 240 180" role="img" aria-label="Person stretching, all clear"><defs><filter id="edgAC" x="0" y="0" width="100%" height="100%"><feTurbulence type="fractalNoise" baseFrequency="1.05" numOctaves="2" seed="1" stitchTiles="stitch" result="n"></feTurbulence><feColorMatrix in="n" type="matrix" values="0 0 0 0 0.16  0 0 0 0 0.14  0 0 0 0 0.11  0 0 0 1.5 -0.92"></feColorMatrix><feComposite in2="SourceAlpha" operator="in"></feComposite></filter></defs><g id="edsAC"><rect width="240" height="180" fill="#F3EEE4"></rect><circle cx="104" cy="100" r="62" fill="#DCE3D3"></circle><path d="M24 162 H216" fill="none" stroke="#B3A894" stroke-width="1.5" stroke-linecap="round" stroke-linejoin="round"></path><path d="M93 80 C 84 66 82 52 86 40" fill="none" stroke="#7E9A7B" stroke-width="9" stroke-linecap="round" stroke-linejoin="round"></path><circle cx="86" cy="38" r="4" fill="#E8B894"></circle><path d="M99 104 L96 156" fill="none" stroke="#2A2B28" stroke-width="9" stroke-linecap="round" stroke-linejoin="round"></path><path d="M109 104 L113 156" fill="none" stroke="#2A2B28" stroke-width="9" stroke-linecap="round" stroke-linejoin="round"></path><ellipse cx="98" cy="162" rx="16" ry="3" fill="#E3DACB"></ellipse><path d="M93 155 h11 a3 3 0 0 1 0 6 h-11 z" fill="#2A2B28" stroke-linejoin="round"></path><ellipse cx="117" cy="162" rx="16" ry="3" fill="#E3DACB"></ellipse><path d="M112 155 h11 a3 3 0 0 1 0 6 h-11 z" fill="#2A2B28" stroke-linejoin="round"></path><path d="M91 108 C 89 86 94 74 104 72 C 114 74 119 86 117 108 Z" fill="#7E9A7B" stroke-linejoin="round"></path><path d="M107 108 C 109 92 110 80 110 74 C 116 76 119 88 117 108 Z" fill="rgba(0,0,0,.10)" stroke-linejoin="round"></path><path d="M105 72 V65" fill="none" stroke="#B3A894" stroke-width="1.5" stroke-linecap="round" stroke-linejoin="round"></path><circle cx="106" cy="56" r="10" fill="#E8B894"></circle><path d="M96 56 C 96 41 117 41 116 53 C 108 49 100 50 96 56 Z" fill="#2B2522"></path><path d="M115 80 C 124 66 126 52 122 40" fill="none" stroke="#7E9A7B" stroke-width="9" stroke-linecap="round" stroke-linejoin="round"></path><circle cx="122" cy="38" r="4" fill="#E8B894"></circle><circle cx="172" cy="56" r="15" fill="#19C37D" stroke="#D9D1C2" stroke-width="1.5"></circle><path d="M165 56 l5 5 l9 -10" fill="none" stroke="#FFFFFF" stroke-width="2.2" stroke-linecap="round" stroke-linejoin="round"></path><g transform="translate(200 140) scale(0.6)"><path d="M-12 0 L12 0 L9 22 L-9 22 Z" fill="#2A2B28"></path><path d="M0 0 C -2 -20 -14 -26 -20 -40" stroke="#5E7A5C" stroke-width="2" fill="none"></path><path d="M0 0 C 2 -18 12 -30 22 -34" stroke="#5E7A5C" stroke-width="2" fill="none"></path><path d="M0 0 C 0 -22 2 -36 0 -52" stroke="#5E7A5C" stroke-width="2" fill="none"></path><path d="M-20 -40 C -28 -32 -24 -22 -12 -22 C -10 -32 -14 -38 -20 -40 Z" fill="#7E9A7B"></path><path d="M22 -34 C 28 -24 20 -18 10 -18 C 10 -28 16 -32 22 -34 Z" fill="#5E7A5C"></path><path d="M0 -52 C -9 -46 -7 -34 0 -30 C 7 -34 9 -46 0 -52 Z" fill="#7E9A7B"></path></g></g><use href="#edsAC" filter="url(#edgAC)"></use></svg>