<svg xmlns="http://www.w3.org/2000/svg" viewBox="0 0 320 230" width="320" height="230"><defs><filter id="edf23" x="0" y="0" width="100%" height="100%"><feTurbulence type="fractalNoise" baseFrequency="1.05" numOctaves="2" seed="161" stitchTiles="stitch" result="n"></feTurbulence><feColorMatrix in="n" type="matrix" values="0 0 0 0 0.16  0 0 0 0 0.14  0 0 0 0 0.11  0 0 0 1.5 -0.92"></feColorMatrix><feComposite in2="SourceAlpha" operator="in"></feComposite></filter></defs><g id="edx23"><rect x="0" y="0" width="320" height="230" rx="0" fill="#F3EEE4"></rect><ellipse cx="190" cy="134" rx="120" ry="82" fill="#E9CFC3"></ellipse><rect x="250" y="124" width="30" height="40" rx="5" fill="#FBF8F2" stroke="#D9D1C2" stroke-width="2"></rect><rect x="259" y="136" width="3" height="8" rx="1" fill="#3A3B37"></rect><rect x="268" y="136" width="3" height="8" rx="1" fill="#3A3B37"></rect><circle cx="265" cy="154" r="2.5" fill="#19C37D"></circle><path d="M200 210 C 210 180 240 196 228 176 C 218 160 250 160 246 178 C 242 196 270 196 274 210" fill="none" stroke="#3A3B37" stroke-width="2.2" stroke-linecap="round" stroke-linejoin="round"></path><circle cx="265" cy="154" r="4" fill="#B5654A"></circle><path d="M16 210 H304" fill="none" stroke="#B3A894" stroke-width="1.5" stroke-linecap="round" stroke-linejoin="round"></path><g transform="translate(130 210) scale(1 1)"><ellipse cx="0" cy="3" rx="20" ry="3" fill="rgba(42,43,40,.12)"></ellipse><path d="M-6 -94 C -16 -84 -16 -74 -8 -68" fill="none" stroke="#7E9A7B" stroke-width="7" stroke-linecap="round" stroke-linejoin="round"></path><path d="M-4 -54 L-6 -2" fill="none" stroke="#2A2B28" stroke-width="7.5" stroke-linecap="round" stroke-linejoin="round"></path><path d="M4 -54 L7 -2" fill="none" stroke="#2A2B28" stroke-width="7.5" stroke-linecap="round" stroke-linejoin="round"></path><path d="M-11 -1 h10 a2.5 2.5 0 0 1 0 4 h-10 z" fill="#2A2B28"></path><path d="M2 -1 h11 a2.5 2.5 0 0 1 0 4 h-11 z" fill="#2A2B28"></path><path d="M-12 -52 C -14 -76 -10 -98 0 -100 C 10 -98 14 -76 12 -52 Z" fill="#7E9A7B"></path><path d="M3 -52 C 5 -70 6 -88 6 -96 C 12 -90 14 -74 12 -52 Z" fill="rgba(0,0,0,.10)"></path><path d="M1 -100 V-105" fill="none" stroke="#A86F4C" stroke-width="4" stroke-linecap="round" stroke-linejoin="round"></path><circle cx="2" cy="-115" r="9.5" fill="#A86F4C"></circle><circle cx="-5" cy="-119" r="4.6" fill="#7A4B2A"></circle><circle cx="-1" cy="-123" r="4.6" fill="#7A4B2A"></circle><circle cx="4" cy="-124" r="4.6" fill="#7A4B2A"></circle><circle cx="8" cy="-121" r="4.6" fill="#7A4B2A"></circle><circle cx="-6" cy="-114" r="4.6" fill="#7A4B2A"></circle><path d="M6 -94 C 10 -78 10 -66 8 -56" fill="none" stroke="#7E9A7B" stroke-width="7" stroke-linecap="round" stroke-linejoin="round"></path><circle cx="8" cy="-55" r="3.4" fill="#A86F4C"></circle></g></g><use href="#edx23" filter="url(#edf23)"></use></svg>