<svg xmlns="http://www.w3.org/2000/svg" xmlns:xlink="http://www.w3.org/1999/xlink" viewBox="0 0 320 230" role="img" aria-label="A person relaxing in a lounge chair with coffee"><defs><filter id="edf21" x="0" y="0" width="100%" height="100%"><feTurbulence type="fractalNoise" baseFrequency="1.05" numOctaves="2" seed="147" stitchTiles="stitch" result="n"></feTurbulence><feColorMatrix in="n" type="matrix" values="0 0 0 0 0.16  0 0 0 0 0.14  0 0 0 0 0.11  0 0 0 1.5 -0.92"></feColorMatrix><feComposite in2="SourceAlpha" operator="in"></feComposite></filter></defs><g id="edx21"><rect x="0" y="0" width="320" height="230" rx="0" fill="#F3EEE4"></rect><ellipse cx="150" cy="130" rx="130" ry="84" fill="#DCE3D3"></ellipse><circle cx="250" cy="58" r="16" fill="#19C37D"></circle><path d="M243.6 58 l4.8 5.12 l8.8 -9.6" fill="none" stroke="#FFFFFF" stroke-width="3" stroke-linecap="round" stroke-linejoin="round"></path><g transform="translate(58 210) scale(0.7 0.7)"><path d="M-10 0 L10 0 L12 -20 L-12 -20 Z" fill="#3A3B37"></path><path d="M0 -20 C -2 -38 -12 -44 -18 -56" fill="none" stroke="#7E9A7B" stroke-width="1.8" stroke-linecap="round" stroke-linejoin="round"></path><path d="M0 -20 C 2 -36 10 -46 20 -50" fill="none" stroke="#7E9A7B" stroke-width="1.8" stroke-linecap="round" stroke-linejoin="round"></path><path d="M0 -20 C 0 -40 2 -54 0 -68" fill="none" stroke="#7E9A7B" stroke-width="1.8" stroke-linecap="round" stroke-linejoin="round"></path><path d="M-18 -56 C -26 -48 -22 -38 -10 -38 C -8 -48 -12 -54 -18 -56 Z" fill="#7E9A7B"></path><path d="M20 -50 C 26 -40 18 -34 8 -34 C 8 -44 14 -48 20 -50 Z" fill="#5E7A5C"></path><path d="M0 -68 C -8 -62 -6 -50 0 -46 C 6 -50 8 -62 0 -68 Z" fill="#7E9A7B"></path></g><path d="M16 210 H304" fill="none" stroke="#B3A894" stroke-width="1.5" stroke-linecap="round" stroke-linejoin="round"></path><g transform="translate(160 210) scale(1 1)"><path d="M-30 -38 C -32 -70 -26 -86 -16 -88 L-10 -40 Z" fill="#C98F5B"></path><rect x="-30" y="-44" width="64" height="14" rx="6" fill="#C98F5B"></rect><path d="M-24 -30 L-26 0 M28 -30 L30 0" fill="none" stroke="#9C734D" stroke-width="3" stroke-linecap="round" stroke-linejoin="round"></path><ellipse cx="0" cy="2" rx="22" ry="3" fill="rgba(42,43,40,.12)"></ellipse><path d="M-4 -84 C -6 -66 2 -54 14 -50" fill="none" stroke="#B5654A" stroke-width="7" stroke-linecap="round" stroke-linejoin="round"></path><path d="M-2 -42 L26 -42 L28 -2" fill="none" stroke="#3A3B37" stroke-width="8" stroke-linecap="round" stroke-linejoin="round"></path><path d="M24 -1 h12 a2.5 2.5 0 0 1 0 4 h-12 z" fill="#2A2B28"></path><path d="M2 -42 L22 -44 L23 -2" fill="none" stroke="#3A3B37" stroke-width="7.5" stroke-linecap="round" stroke-linejoin="round"></path><path d="M19 -1 h11 a2.5 2.5 0 0 1 0 4 h-11 z" fill="#2A2B28"></path><path d="M-10 -40 C -14 -64 -8 -88 2 -90 C 12 -88 14 -66 12 -40 Z" fill="#B5654A"></path><path d="M4 -40 C 6 -60 7 -78 7 -86 C 13 -80 14 -62 12 -40 Z" fill="rgba(0,0,0,.10)"></path><path d="M3 -90 V-95" fill="none" stroke="#C68863" stroke-width="4" stroke-linecap="round" stroke-linejoin="round"></path><circle cx="5" cy="-105" r="9.5" fill="#C68863"></circle><circle cx="-2" cy="-109" r="4.6" fill="#1E1A18"></circle><circle cx="2" cy="-113" r="4.6" fill="#1E1A18"></circle><circle cx="7" cy="-114" r="4.6" fill="#1E1A18"></circle><circle cx="11" cy="-111" r="4.6" fill="#1E1A18"></circle><circle cx="-3" cy="-104" r="4.6" fill="#1E1A18"></circle><rect x="20" y="-97" width="9" height="11" rx="2" fill="#FBF8F2"></rect><path d="M29 -94 a3 3 0 0 1 0 6" fill="none" stroke="#FBF8F2" stroke-width="2" stroke-linecap="round" stroke-linejoin="round"></path><path d="M6 -84 C 12 -70 18 -70 24 -78" fill="none" stroke="#B5654A" stroke-width="7" stroke-linecap="round" stroke-linejoin="round"></path><circle cx="25" cy="-79" r="3.4" fill="#C68863"></circle></g></g><use href="#edx21" filter="url(#edf21)"></use></svg>